<?xml version="1.0" encoding="UTF-8" standalone="no"?>
<svg xmlns="http://www.w3.org/2000/svg" version="1.1" viewBox="0 0 670 535" width="670" height="535">
<path id="traits" style="fill:#ffd600;" d="m 309.76364,55.292861 0,12.18359 46.44336,0 0,-12.18359 -46.44336,0 z m -0.16601,110.238269 0,12.1836 46.44726,0 0,-12.1836 -46.44726,0 z m 0.16601,111.79883 0,12.1836 46.44336,0 0,-12.1836 -46.44336,0 z m 0,111.88867 0,12.1836 46.44336,0 0,-12.1836 -46.44336,0 z"/>
<path id="texte" style="fill:#000000" d="m 248.64841,87.447161 c -0.22676,0.0152 -0.46484,0.1264 -0.46484,0.76953 l 0,56.167969 c 0,0.85 -0.001,0.76758 0.67773,0.76758 l 13.95899,0 c 0.59619,0 0.67382,-0.0888 0.67382,-0.76758 l 0,-16.08594 9.78907,-0.16992 c 0,0 6.21437,9.78852 9.10937,15.32227 0.75875,1.5325 1.10516,1.70117 1.78516,1.70117 l 15.07031,0 c 0.9325,0 1.18836,-0.59703 0.16211,-2.30078 -4.93625,-8 -9.78469,-16.59399 -11.99219,-20.08399 5.1875,-2.4675 7.91211,-8.00382 7.91211,-15.83008 0,-10.464999 -6.97594,-19.490229 -20.08594,-19.490229 l -26.38281,0 c -0.0637,0 -0.1373,-0.005 -0.21289,0 z m 63.875,0 c -0.8487,0 -0.76172,0.0841 -0.76172,0.85156 l 0,55.658209 c 0,1.0225 0.0848,1.19726 0.9336,1.19726 l 40.57617,0 c 0.8562,0 0.9414,-0.17476 0.9414,-1.19726 l 0,-10.97657 c 0,-1.10625 0.001,-1.10546 -0.9414,-1.10546 l -26.61914,0.25195 0,-9.87305 23.13086,0 c 0.76375,0 0.85937,-0.1657 0.85937,-1.18945 l 0,-10.38477 c 0,-1.02125 -0.0956,-1.18946 -0.85937,-1.18946 l -23.13086,0 0,-9.615231 26.54492,0.250001 c 0.6825,0 0.9414,-0.421089 0.9414,-1.183589 l 0,-10.38672 c 0,-1.02375 -0.0851,-1.10742 -0.9414,-1.10742 l -40.67383,0 z m 83.18556,0.002 c -16.1875,0 -28.89258,11.63312 -28.89258,28.890619 0,17.0925 11.07382,28.81445 28.48633,28.81445 8.06625,0 11.55914,-2.61156 14.90039,-5.53906 l 9.0332,5.29101 c 0.24875,0.0788 0.48664,0.24805 0.80664,0.24805 0.73875,0 0.73828,-0.33203 0.73828,-0.33203 l 0,-24.16797 c 0,-0.40875 -0.16429,-0.57422 -0.65429,-0.57422 l -12.20508,0 c -0.3225,0 -0.56399,0.32836 -0.64649,0.81836 -0.97625,5.77625 -4.64062,10.33203 -11.64062,10.33203 -8.3075,0 -13.59571,-5.52929 -13.59571,-14.81054 10e-6,-8.86875 4.9629,-14.97266 13.8379,-14.97266 5.37,0 9.10945,2.68555 10.9082,6.3418 0.2425,0.49 0.64641,0.90125 1.22266,0.65625 l 11.96289,-4.55859 c 0.5675,-0.16625 0.4875,-0.73305 0.15625,-1.4668 -3.9025,-8.378749 -11.30797,-14.970699 -24.41797,-14.970699 z m 41.78711,0 c -0.32327,0.0149 -0.32423,0.12445 -0.32423,0.76757 l 0,56.167969 c 0,0.8512 10e-4,0.76758 0.76758,0.76758 l 14.125,0 c 0.76876,0 0.85742,-0.0888 0.85742,-0.76758 l 0,-56.167969 c 0,-0.685 -0.0887,-0.76757 -0.85742,-0.76757 l -14.125,0 c -0.19157,0 -0.3356,-0.005 -0.44335,0 z m 58.94726,0 c -16.24,0 -28.53711,12.938119 -28.53711,28.890619 0,15.9525 12.29711,28.81445 28.53711,28.81445 16.24,0 28.54492,-12.86195 28.54492,-28.81445 0,-15.9525 -12.30492,-28.890619 -28.54492,-28.890619 z m 44.44922,0.006 c -0.0499,0.0121 -0.0958,0.0365 -0.13672,0.0762 -0.1512,0.0838 -0.23633,0.24359 -0.23633,0.65234 -0.32,21.293749 -0.4,35.512969 0,56.074219 0,0.32375 0.23789,0.81054 0.80664,0.81054 l 12.17969,0 c 0.72375,0 0.72461,2.4e-4 0.72461,-0.72851 l 0,-26.07617 c 0,0 19.03289,17.50539 31.21289,26.61914 0.325,0.24 0.56672,0.32023 0.73047,0.24023 0.2425,-0.0775 0.24219,-0.48242 0.24219,-1.04492 0.23875,-16.78 0.32,-39.78883 0,-55.517579 0,-0.8075 3.1e-4,-0.96875 -0.80469,-0.96875 l -12.26172,0 c -0.6475,0 -0.64648,0.08 -0.64648,0.96875 l 0,25.593749 c 0,0 -19.76563,-18.312809 -31.29688,-26.539059 -0.18,-0.12 -0.36408,-0.19642 -0.51367,-0.16016 z m -277.39844,12.673819 8.43164,0 c 4.93624,0 7.23047,3.40461 7.23047,7.91211 0,4.93625 -2.54937,8.34188 -7.14062,8.51563 l -8.52149,0.25195 0,-16.67969 z m 232.94922,1.23633 c 8.52,0 13.51172,6.58961 13.51172,14.97461 0,8.38375 -4.99172,14.89062 -13.51172,14.89062 -8.67625,0 -13.5,-6.50687 -13.5,-14.89062 0,-8.385 4.82375,-14.97461 13.5,-14.97461 z M 56.435515,197.78514 c -0.6951,0 -0.6953,0.10844 -0.6953,0.52344 l 0,56.31836 c 0,0.20125 3e-4,0.74594 0.0703,0.83594 0.03,0.02 0.1525,0.0273 0.3613,0.0273 l 27.3965,0 c 9.78999,0 16.11529,-6.08375 16.11529,-15.5 0,-6.1775 -4.0927,-13.17234 -11.66019,-13.96484 l -1.75,-0.17969 1.6875,-0.47656 c 6.50379,-1.8325 10.08589,-6.30485 10.08589,-12.58985 0,-9.38875 -6.2125,-14.99414 -16.62499,-14.99414 l -24.9863,0 z m 82.396485,0 c -16.20749,0 -28.9024,12.69328 -28.9024,28.89453 0,16.15625 12.69491,28.81055 28.9024,28.81055 16.2025,0 28.89453,-12.6543 28.89453,-28.81055 0,-16.20125 -12.69203,-28.89453 -28.89453,-28.89453 z m 43.4668,0 0,0.16602 0,34.95117 c 0,14.56875 8.32039,22.58789 23.43164,22.58789 15.5,0 23.35352,-7.31695 23.35352,-21.75195 l 0,-35.70313 c 0,-0.0888 4e-5,-0.18125 -0.002,-0.25 l -0.0723,0 -13.7793,0 c -0.0788,0 -0.12961,-9e-5 -0.16211,0.004 -0.008,0.065 -0.008,0.15984 -0.008,0.24609 l 0,37.46289 c 0,5.715 -4.74961,8.32227 -9.16211,8.32227 -4.41,0 -9.1543,-2.60727 -9.1543,-8.32227 l 0,-37.3789 c 0,-0.12125 -8.6e-4,-0.25133 -0.006,-0.33008 -0.0675,-0.004 -0.16695,-0.004 -0.25195,-0.004 l -14.09961,0 -0.0879,0 z m 61.9375,0 c -0.12125,0 -0.21094,1.6e-4 -0.21094,0.44141 l 0,56.82422 c 0,0.1775 8.6e-4,0.3414 0.006,0.4414 l 0.0469,0 0.29101,-0.002 14.12891,0 c 0.2475,0 0.31328,-0.016 0.33203,-0.0273 -0.005,-0.006 0.0215,-0.0972 0.0215,-0.41211 l 0,-16.60157 10.42383,-0.18359 0.0977,0.1582 0,0.002 c 0.0675,0.0975 6.33352,9.97468 9.22851,15.52343 0.76875,1.54 1.02821,1.54102 1.50196,1.54102 l 15.24414,0 c 0.14625,0 0.4039,-0.0156 0.47266,-0.14063 0.0475,-0.085 0.14335,-0.45617 -0.5879,-1.66992 -2.75625,-4.46875 -5.5289,-9.19312 -7.7539,-12.98437 -1.81625,-3.08875 -3.38321,-5.75828 -4.37696,-7.33203 l -0.20507,-0.32032 0.34571,-0.16211 c 5.10624,-2.43375 7.81445,-7.86609 7.81445,-15.71484 0,-9.645 -6.18398,-19.37891 -19.99023,-19.37891 l -26.83008,-0.002 z m 90.6582,0 c -16.185,0 -28.89062,11.63383 -28.89062,28.89258 0,17.0925 11.07773,28.8125 28.49023,28.8125 8.06125,0 11.55578,-2.60711 14.89453,-5.53711 l 9.03516,5.29297 c 0.24375,0.0788 0.48664,0.24414 0.80664,0.24414 0.73375,0 0.73438,-0.33008 0.73438,-0.33008 l 0,-24.16992 c 0,-0.4075 -0.16094,-0.57031 -0.64844,-0.57031 l -12.20508,0 c -0.32,0 -0.56203,0.33015 -0.64453,0.8164 -0.97875,5.7775 -4.64063,10.33203 -11.64063,10.33203 -8.31,0 -13.5957,-5.52859 -13.5957,-14.80859 0,-8.87 4.96039,-14.97656 13.83789,-14.97656 5.365,0 9.10805,2.68945 10.9043,6.3457 0.2425,0.4875 0.64641,0.89805 1.22266,0.6543 l 11.95898,-4.55664 c 0.57125,-0.16625 0.49336,-0.7368 0.16211,-1.4668 -3.9,-8.3825 -11.30688,-14.97461 -24.42188,-14.97461 z m 63.80664,0 c -16.20499,0 -28.90429,12.69328 -28.90429,28.89453 0,16.15625 12.6993,28.81055 28.90429,28.81055 16.2075,0 28.89649,-12.6543 28.89649,-28.81055 0,-16.20125 -12.68899,-28.89453 -28.89649,-28.89453 z m 70.64844,0 c -16.1875,0 -28.89258,11.63383 -28.89258,28.89258 0,17.0925 11.07383,28.8125 28.48633,28.8125 8.06125,0 11.56079,-2.60711 14.89453,-5.53711 l 9.03516,5.29297 c 0.24625,0.0788 0.48914,0.24414 0.80664,0.24414 0.73625,0 0.73633,-0.33008 0.73633,-0.33008 l 0,-24.16992 c 0,-0.4075 -0.16163,-0.57031 -0.65039,-0.57031 l -12.20508,0 c -0.32,0 -0.56344,0.33015 -0.64844,0.8164 -0.97625,5.7775 -4.63922,10.33203 -11.63672,10.33203 -8.31,0 -13.59961,-5.52859 -13.59961,-14.80859 0,-8.87 4.96735,-14.97656 13.83985,-14.97656 5.37,0 9.11,2.68945 10.90625,6.3457 0.2425,0.4875 0.65087,0.89805 1.22461,0.6543 l 11.96289,-4.55664 c 0.5675,-0.16625 0.48875,-0.7368 0.15625,-1.4668 -3.90375,-8.3825 -11.30352,-14.97461 -24.41602,-14.97461 z m 103.92969,0 c -0.84625,0 -0.76171,0.0835 -0.76171,0.85352 l 0,55.65625 c 0,1.02375 0.0829,1.19531 0.93164,1.19531 l 40.57813,0 c 0.85619,0 0.94335,-0.17156 0.94335,-1.19531 l 0,-10.97461 c 0,-1.10875 -8.5e-4,-1.10938 -0.94335,-1.10938 l -26.6172,0.25391 0,-9.875 23.125,0 c 0.76875,0 0.86133,-0.1625 0.86133,-1.1875 l 0,-10.38477 c 0,-1.01875 -0.0926,-1.1914 -0.86133,-1.1914 l -23.125,0 0,-9.61524 26.54493,0.25 c 0.68124,0 0.94141,-0.41984 0.94141,-1.18359 l 0,-10.38281 c 0,-1.02625 -0.0864,-1.10938 -0.94141,-1.10938 l -40.67579,0 z m -61.04492,0.008 c -0.0501,0.0117 -0.0958,0.0374 -0.13672,0.0762 -0.1487,0.085 -0.23828,0.24609 -0.23828,0.65234 -0.32,21.29625 -0.40249,35.51367 0,56.07617 0,0.32125 0.23845,0.80859 0.80468,0.80859 l 12.18556,0 c 0.72125,0 0.72071,9.4e-4 0.72071,-0.72656 l 0,-26.07812 c -10e-6,0 19.03484,17.50218 31.21484,26.61718 0.325,0.24251 0.56672,0.31969 0.73047,0.24219 0.24249,-0.0787 0.24219,-0.48047 0.24219,-1.04297 0.24125,-16.77875 0.32,-39.79523 0,-55.52148 -10e-6,-0.805 3.1e-4,-0.96484 -0.80469,-0.96484 l -12.26172,0 c -0.645,0 -0.64453,0.0773 -0.64453,0.96484 l 0,25.5957 c 0,0 -19.76508,-18.31156 -31.29883,-26.53906 -0.17813,-0.1191 -0.3635,-0.19527 -0.51367,-0.16016 z m -441.763635,11.36914 6.7324,0 c 3.77,0 5.8476,2.07711 5.8476,5.84961 0,3.65625 -2.1889,5.84961 -5.8476,5.84961 l -6.7324,0 0,-11.69922 z m 188.380815,0.7793 8.85743,0 c 4.7925,0 7.64453,3.12125 7.64453,8.34375 0,5.34875 -2.88422,8.78047 -7.54297,8.94922 l -8.95899,0.26758 0,-17.56055 z M 138.832,211.19353 c 8.47375,0 14.16797,6.22258 14.16797,15.48633 0,9.21375 -5.69422,15.4043 -14.16797,15.4043 -8.47879,0 -14.17379,-6.19055 -14.17379,-15.4043 0,-9.26375 5.695,-15.48633 14.17379,-15.48633 z m 259.86914,0 c 8.47375,0 14.16016,6.22258 14.16016,15.48633 0,9.21375 -5.68641,15.4043 -14.16016,15.4043 -8.48125,0 -14.18164,-6.19055 -14.18164,-15.4043 0,-9.26375 5.70039,-15.48633 14.18164,-15.48633 z m -328.230425,19.58789 7.5996,0 c 3.6312,0 6.2676,2.82399 6.2676,6.70899 0,4.15 -2.3439,6.62305 -6.2676,6.62305 l -7.5996,0 0,-13.33204 z m 58.154295,78.41211 c -0.2187,0 -0.2906,0.0127 -0.3106,0.0215 -0.06,0.0925 -0.0586,0.62453 -0.0586,0.80078 l 0,58.89648 c 0,0.655 0.0442,0.85938 0.0762,0.92188 0,-0.004 0.01,-0.004 0.01,-0.004 l 0.0996,0 0,0.34571 0.0781,-0.34571 0.1055,-0.002 14.74606,0 c 0.41125,0 0.45117,2.3e-4 0.45117,-0.91602 l 0,-20.34765 21.71875,0.18164 c 0.7375,0 0.85031,-0.13594 0.91406,-0.67969 0.22875,-3.6775 0.22889,-7.43445 -0.006,-12.1582 0,-0.48125 -0.13265,-0.75196 -0.8164,-0.75196 l -21.81055,0.27735 0,-13.01563 24.52734,0.1836 c 0.235,0 0.3161,-0.0149 0.33985,-0.0274 0.005,0.004 -0.01,-0.13922 0,-0.29297 l 0.0293,-0.27148 c 0.3725,-3.67875 0.24375,-8.73734 0,-12.24609 l -0.0293,-0.2461 c -0.01,-0.12125 -0.027,-0.26765 -0.0469,-0.3164 0,0 -0.0674,-0.008 -0.29492,-0.008 l -39.72262,0 z m 142.41598,1.63672 c -0.0725,0 -0.14906,0.006 -0.22656,0.008 -0.0963,0.004 -0.20782,0.01 -0.32032,0.01 -0.24,0 -0.59531,1.6e-4 -0.72656,0.0352 -6.3675,11.92875 -19.54898,38.5182 -28.24023,56.9707 -0.19375,0.51375 -0.14508,0.63539 -0.14258,0.65039 0,0 0.0591,0.0352 0.25781,0.0352 l 13.79688,0 c 0.9275,0 0.98515,-0.14656 1.1914,-0.69532 0.3275,-0.79874 0.68922,-1.70601 1.07422,-2.66601 0.6075,-1.515 1.23266,-3.08375 1.84766,-4.5 l 0.0859,-0.20117 20.56641,0 0.082,0.21289 c 0.55,1.3725 1.94367,4.8464 3.07617,7.3789 0.18125,0.425 0.35664,0.47071 0.68164,0.47071 0,0 11.59211,-10e-4 11.66211,-0.0117 -0.0275,-0.1025 4.08977,-0.29649 3.91602,-0.67774 -2.8025,-5.63125 -5.85383,-11.79132 -8.95508,-18.04882 -6.9975,-14.11625 -14.2275,-28.71039 -19.46875,-38.96289 -0.02,0.004 -0.0645,-0.008 -0.1582,-0.008 z m 124.85547,0 c -16.23875,0 -28.49024,12.45727 -28.49024,28.97852 0,16.37625 12.42789,28.72851 28.90039,28.72851 13.66,0 22.2493,-9.07023 25.4668,-16.83398 0.0512,-0.16 0.0566,-0.28719 0.0117,-0.36719 -0.0562,-0.10125 -0.23977,-0.18969 -0.50977,-0.24219 l -12.37695,-3.38671 c -0.08,-0.0188 -0.15094,-0.0312 -0.21094,-0.0312 -0.12125,0 -0.15265,0.0231 -0.3164,0.31054 l -0.0859,0.14844 c -2.14125,4.55625 -6.34039,7.08008 -11.80664,7.08008 -7.0125,0 -14.08594,-4.73852 -14.08594,-15.32227 0,-9.22 5.68703,-15.65625 13.83203,-15.65625 5.72,0 9.86797,2.5875 12.32422,7.6875 0.045,0.11 0.10867,0.26438 0.13867,0.29688 0.015,-0.0113 0.0721,-0.0211 0.19336,-0.0586 l 12.26172,-4.77343 c 0.11875,-0.0588 0.39997,-0.20071 0.0449,-1.03321 -2.05625,-4.66375 -8.64601,-15.52539 -25.29101,-15.52539 z m 40.06836,0 c -0.0462,0 -0.078,-9e-5 -0.10547,0.004 -0.0125,0.1 -0.0117,0.27141 -0.0117,0.44141 l 0,56.82617 c 0,0.16625 -7.8e-4,0.33554 0.0117,0.43554 0.0275,0 0.0584,0.004 0.0996,0.004 l 0.33007,-0.004 14.02735,0 c 0.24,0 0.31789,-0.0226 0.33789,-0.0312 -0.007,-0.007 0.0176,-0.0942 0.0176,-0.40429 l 0,-23.07227 20.22461,0 0,23.07227 c 0,0.2875 0.0207,0.37679 0.0332,0.40429 0.025,0.009 0.13266,0.0312 0.47266,0.0312 l 14.19726,0.004 c 0.0462,0 0.0786,-0.004 0.10352,-0.004 0.005,-0.1 0.004,-0.26929 0.004,-0.43554 l 0,-56.82617 c 0,-0.17 10e-4,-0.34141 -0.004,-0.44141 -0.025,-0.004 -0.0606,-0.004 -0.10938,-0.004 l -0.32812,0.004 -13.86328,0 c -0.34,0 -0.44883,0.0248 -0.48633,0.041 -0.008,0.0288 -0.0195,0.16664 -0.0195,0.40039 l 0,20.65234 -20.22461,0 0,-20.65234 c 0,-0.3125 -0.0257,-0.40274 -0.0332,-0.42774 -0.025,0.007 -0.0773,-0.0137 -0.32226,-0.0137 l -14.35156,-0.004 z m 65.72461,0 c -0.8463,0 -0.76172,0.0892 -0.76172,0.85547 l 0,55.6582 c 0,1.02376 0.0823,1.19336 0.93359,1.19336 l 40.58008,0 c 0.8512,0 0.93945,-0.1696 0.93945,-1.19336 l 0,-10.97656 c 0,-1.10625 5.5e-4,-1.10742 -0.93945,-1.10742 l -26.62305,0.25391 0,-9.87696 23.13086,0 c 0.76625,0 0.85742,-0.16554 0.85742,-1.18554 l 0,-10.38672 c 0,-1.02 -0.0912,-1.18945 -0.85742,-1.18945 l -23.13086,0 0,-9.61329 26.54688,0.24805 c 0.6825,0 0.94336,-0.4218 0.94336,-1.18555 l 0,-10.38281 c 0,-1.02245 -0.0871,-1.11133 -0.94336,-1.11133 l -40.67578,0 z m -317.50782,0.002 c -0.11625,0 -0.21484,-0.002 -0.21484,0.44336 l 0,56.82421 c 0,0.17125 -2.4e-4,0.33821 0.01,0.43946 l 0.0488,0 0.29297,0 14.1211,0 c 0.24125,0 0.31507,-0.0168 0.33007,-0.0293 0,-0.01 0.0195,-0.11016 0.0195,-0.41016 l 0,-16.60156 10.41797,-0.1875 0.10157,0.16211 c 0.065,0.0962 6.34047,9.97664 9.23046,15.52539 0.76626,1.54125 1.02907,1.54102 1.50782,1.54102 l 15.24023,0 c 0.15375,0 0.40391,-0.0201 0.47266,-0.14258 0.05,-0.0813 0.14672,-0.45758 -0.58203,-1.67383 -2.72875,-4.415 -5.4768,-9.08961 -7.68555,-12.84961 -1.85,-3.14875 -3.44414,-5.86359 -4.46289,-7.46484 l -0.20117,-0.32422 0.34375,-0.16016 c 5.12125,-2.42875 7.82617,-7.86328 7.82617,-15.70703 0,-9.64625 -6.18148,-19.3789 -19.99023,-19.3789 l -26.82618,-0.006 z m 126.42188,0.01 c -0.11141,-0.0203 -0.21375,-10e-4 -0.29688,0.0781 -0.1537,0.0813 -0.23828,0.24148 -0.23828,0.64648 -0.3225,21.29625 -0.4025,35.51563 0,56.07813 0,0.3225 0.23844,0.80859 0.80469,0.80859 l 12.18555,0 c 0.72125,0 0.7207,-3.1e-4 0.7207,-0.72656 l 0,-26.07813 c 0,0 19.02984,17.50594 31.21484,26.61719 0.32,0.2425 0.56422,0.32099 0.73047,0.24219 0.24125,-0.08 0.24024,-0.48047 0.24024,-1.04297 0.2375,-16.77875 0.31875,-39.79188 0,-55.51563 0,-0.81125 0.001,-0.9707 -0.80274,-0.9707 l -12.26172,0 c -0.645,0 -0.64453,0.0807 -0.64453,0.9707 l 0,25.58985 c 0,0 -19.76898,-18.31156 -31.30273,-26.53906 -0.11875,-0.0794 -0.23821,-0.13789 -0.34961,-0.15821 z m -111.81446,12.14844 8.85938,0 c 4.7975,0 7.6582,3.12195 7.6582,8.3457 0,5.345 -2.89804,8.77336 -7.56054,8.94336 l -8.95704,0.27149 0,-17.56055 z m 70.875,13.5625 6.42969,13.78125 -12.59961,0 0.21094,-0.47656 5.95898,-13.30469 z M 83.509715,422.00194 c -16.23,0 -28.4804,12.45781 -28.4804,28.97656 0,16.38125 12.4264,28.72852 28.8964,28.72852 13.66749,0 22.257895,-9.06969 25.462885,-16.83594 0.054,-0.1575 0.0617,-0.28969 0.0157,-0.36719 -0.06,-0.1025 -0.239,-0.18844 -0.5039,-0.24219 l -12.380895,-3.38281 c -0.082,-0.0238 -0.1538,-0.0332 -0.2188,-0.0332 -0.1088,0 -0.1408,0.0203 -0.3046,0.30273 l -0.0918,0.15821 c -2.1362,4.55375 -6.33969,7.07812 -11.81839,7.07812 -7.0051,0 -14.0801,-4.73922 -14.0801,-15.32422 0,-9.215 5.6938,-15.6543 13.8438,-15.6543 5.7037,0 9.84849,2.58805 12.32219,7.68555 0.045,0.10625 0.1057,0.26188 0.1407,0.29688 0.015,-0.0125 0.0716,-0.0166 0.1933,-0.0566 l 12.257795,-4.77539 c 0.1262,-0.0663 0.39471,-0.20336 0.0469,-1.03711 -2.0512,-4.66375 -8.6395,-15.51758 -25.300785,-15.51758 z m 65.091815,0 c -16.20501,0 -28.89651,12.69078 -28.89651,28.89453 0,16.155 12.6915,28.81055 28.89651,28.81055 16.20502,0 28.9004,-12.65555 28.9004,-28.81055 0,-16.20375 -12.6954,-28.89453 -28.9004,-28.89453 z m 92.58399,0 c 0.015,0.01 -0.0183,0.002 -0.0508,0.002 -0.13375,0 -0.28914,0.0723 -0.40038,0.1836 -8.01751,7.75375 -21.98852,22.41835 -25.41603,26.50585 l -0.24413,0.29688 -0.26172,-0.28906 c -3.87375,-4.385 -18.58039,-19.15985 -25.58789,-26.08985 -0.19,-0.18625 -0.28039,-0.22937 -0.36914,-0.23437 -0.065,0.0375 -0.17883,0.16765 -0.23633,0.6289 -0.93,20.75375 -1.54289,41.34368 -1.68164,56.45118 l 0,0.18359 c 0.10375,-0.0113 0.24367,-0.0254 0.41992,-0.0254 l 12.5879,0 c 0.58749,0 0.58789,4.7e-4 0.58789,-0.83203 l 0.60546,-24.71875 0.5586,0.56445 c 0.0987,0.095 9.77953,9.85203 13.01953,13.17578 0.0788,0.0825 0.28062,0.30086 0.35937,0.31836 0.015,-0.007 0.17704,-0.0778 0.42579,-0.32031 3.30125,-3.32125 12.65304,-12.99625 12.74804,-13.09375 l 0.5625,-0.58008 0.51953,25.23828 c 0,0.31625 -4.6e-4,0.33985 0.33203,0.33985 l 13.68165,0 c 0.22125,0 0.27148,-0.041 0.27148,-0.041 0.0275,-0.045 0.0125,-0.24726 0,-0.38477 -0.007,-0.125 -0.0234,-0.2664 -0.0234,-0.41015 -0.61,-21.2275 -1.10851,-35.10367 -2.25976,-56.48242 0,-0.23375 -0.11344,-0.36672 -0.14844,-0.38672 z m 11.90431,0 c -0.26,0 -0.3215,0.0277 -0.33399,0.0352 -0.0125,0.0388 -0.0117,0.27813 -0.0117,0.48438 l 0,11.10937 0,0.25782 c 0.05,0.002 0.12578,0.0117 0.26953,0.0117 l 15.47657,-0.18165 0,45.55079 c 0,0.16875 -7.8e-4,0.34234 0.0117,0.43359 0.03,0 0.0758,0.004 0.14453,0.004 l 0.37304,-0.004 14.20702,0 c 0.29501,0 0.39297,-0.017 0.41798,-0.0332 0.008,-0.0125 0.0234,-0.0979 0.0234,-0.40039 l 0,-45.54883 15.05664,0.17969 c 0.17625,0 0.24313,-0.012 0.26563,-0.0195 -0.005,-0.002 0,-0.0725 0,-0.25 l 0,-11.10937 c 0,-0.365 -0.0358,-0.46008 -0.0508,-0.48633 0,0 -0.0511,-0.0332 -0.29493,-0.0332 l -45.55468,0 z m 59.43358,0 c -0.8487,0 -0.76172,0.0853 -0.76172,0.85156 l 0,55.6582 c 0,1.0225 0.0848,1.19532 0.9336,1.19532 l 40.57617,0 c 0.8562,0 0.9414,-0.17282 0.9414,-1.19532 l 0,-10.97656 c 0,-1.10625 0.001,-1.10547 -0.9414,-1.10547 l -26.61914,0.25391 0,-9.875 23.13086,0 c 0.76375,0 0.85937,-0.1657 0.85937,-1.18945 l 0,-10.38477 c 0,-1.02125 -0.0956,-1.19141 -0.85937,-1.19141 l -23.13086,0 0,-9.61328 26.54492,0.25 c 0.6825,0 0.9414,-0.42179 0.9414,-1.18554 l 0,-10.38477 c 0,-1.02245 -0.0851,-1.10742 -0.9414,-1.10742 l -40.67383,0 z m -163.92188,13.40429 c 8.47626,0 14.17188,6.22399 14.17188,15.49024 0,9.2125 -5.69563,15.40039 -14.17188,15.40039 -8.47624,0 -14.16602,-6.18789 -14.16602,-15.40039 0,-9.26625 5.68978,-15.49024 14.16602,-15.49024 z"/>
</svg>